<?xml version="1.0" encoding="utf-8"?>
<!-- Generator: Adobe Illustrator 27.5.0, SVG Export Plug-In . SVG Version: 6.00 Build 0)  -->
<svg version="1.1" id="_x32_" xmlns="http://www.w3.org/2000/svg" xmlns:xlink="http://www.w3.org/1999/xlink" x="0px" y="0px"
	 viewBox="0 0 576 358" style="enable-background:new 0 0 576 358;" xml:space="preserve">
<g>
	<g>
		<polygon style="fill:#636E99;" points="356.695,179.366 375.316,153.699 393.937,127.026 398.467,130.046 442.251,197.484 
			465.401,229.19 416.584,253.347 374.813,251.837 		"/>
		<polygon style="opacity:0.2;fill:#545C8A;" points="449.548,227.68 458.075,219.154 445.182,201.497 438.728,215.601 
			424.385,216.859 407.022,231.706 380.852,228.938 384.375,234.223 411.3,242.274 430.424,229.693 		"/>
		<polygon style="opacity:0.2;fill:#545C8A;" points="431.683,181.379 422.875,188.425 415.829,186.16 399.222,197.232 
			380.852,185.405 371.793,188.928 357.965,177.615 356.695,179.366 362.584,202.92 365.251,204.781 379.595,201.762 
			398.718,211.575 415.075,195.471 424.385,193.709 		"/>
		<polygon style="fill:#ACB8D1;" points="426.151,172.686 398.467,130.046 393.937,127.026 375.316,153.699 365.726,166.917 
			373.303,161.752 378.588,159.487 380.098,167.791 384.627,174.962 389.156,168.923 394.44,162.129 399.347,171.565 
			401.99,165.526 407.652,160.997 415.2,166.281 415.955,163.261 426.146,173.075 		"/>
		<path style="opacity:0.5;fill:#545C8A;" d="M397.712,136.84c1.006,2.265,1.258,20.76,2.39,25.289
			c0.613,2.454,9.823,22.913,10.946,27.932c0.995,4.447,8.392,31.96,8.681,35.48c0.376,4.57,3.775,30.574,3.775,30.574
			l41.897-26.925l-23.15-31.706l-43.784-67.438l-4.53-3.02c0,0,0.049,0.133,0.136,0.369
			C394.641,128.938,396.839,134.876,397.712,136.84z"/>
		<polygon style="fill:#545C8A;" points="200.682,241.268 232.891,197.484 272.65,134.575 290.012,100.856 299.323,90.287 
			339.081,144.641 382.865,219.628 408.029,252.843 221.819,294.111 		"/>
		<polygon style="opacity:0.2;fill:#545C8A;" points="230.921,200.161 246.479,189.683 258.935,202.516 291.001,196.678 
			314.421,207.801 338.955,184.776 350.275,186.499 355.836,173.337 354.046,170.27 346.882,178.737 337.445,177.605 
			311.024,194.212 287.621,183.644 274.411,185.531 255.161,171.943 246.202,176.423 232.891,197.483 		"/>
		<path style="fill:#717FAA;" d="M200.682,241.268l16.64,41.6l64.597-2.076l82.472-18.277l39.175-15.563l-20.701-27.324
			l-11.235-19.242l-0.091-0.133c0,0,12.332,28.686,4.029,30.574c-8.304,1.887-15.979-25.541-18.118-24.534
			c-2.139,1.007,9.79,35.493-1.533,36.625c-11.324,1.132-23.253-43.167-25.643-43.041c-2.391,0.126-0.378,21.515-9.059,23.024
			c-8.681,1.51-9.436-16.482-11.701-16.23c-2.265,0.251-2.139,26.547-9.688,26.547c-7.549,0-4.906-39.632-6.92-39.758
			c-2.013-0.126-15.098,42.652-23.78,42.275c-8.681-0.377-1.761-23.402-4.026-23.653c-2.265-0.252-18.117,46.3-29.189,42.778
			c-6.825-2.171-1.51-21.012-3.02-21.641c-1.51-0.629-17.853,23.137-23.137,18.608c-5.283-4.529,19.353-49.19,19.359-49.204
			L200.682,241.268z"/>
		<polygon style="opacity:0.2;fill:#545C8A;" points="217.416,237.242 232.891,238.751 252.896,263.664 296.681,258.002 
			308.004,264.418 346.127,252.34 374.436,253.095 388.779,240.639 399.005,240.931 382.865,219.627 380.397,215.4 366.887,234.6 
			333.293,234.223 311.024,246.301 294.038,241.394 257.803,246.678 235.533,229.693 220.435,230.07 215.401,221.26 		"/>
		<polygon style="fill:#CAD4E8;" points="341.5,148.783 339.081,144.641 299.323,90.287 290.012,100.856 272.65,134.576 
			257.905,157.904 266.484,150.617 278.689,142.879 281.708,149.673 286.237,146.905 303.097,172.572 307.815,158.231 
			314.25,149.196 322.473,155.461 323.983,144.389 325.744,135.833 		"/>
		<path style="opacity:0.5;fill:#545C8A;" d="M305.362,151.183c0.755,4.152-11.323,33.216-10.946,37.745
			c0.378,4.529-9.598,45.369-11.323,53.976c-1.173,5.851-11.708,31.194-11.059,38.643l135.995-28.704l-25.164-33.216l-43.785-74.987
			l-39.758-54.353c0,0,4.907,16.734,5.662,19.376C305.74,112.306,304.607,147.031,305.362,151.183z"/>
	</g>
	<g>
		<g>
			<path style="fill:#35678F;" d="M291.396,241.017c0,0-3.02-7.172-10.757-16.042c0,0,0.189,10.192,0.944,19.062l7.926,1.887
				L291.396,241.017z"/>
			<path style="fill:#265173;" d="M289.509,245.923l1.887-4.907c0,0-3.02-7.172-10.757-16.042c0,0,5.35,12.14,8.679,20.903
				L289.509,245.923z"/>
		</g>
		<g>
			<path style="fill:#35678F;" d="M420.928,245.135c0,0-1.267-7.678-6.727-18.105c0,0-2.189,9.955-3.52,18.757l7.27,3.681
				L420.928,245.135z"/>
			<path style="fill:#265173;" d="M417.95,249.468l2.977-4.333c0,0-1.267-7.678-6.727-18.105c0,0,2.377,13.052,3.574,22.35
				L417.95,249.468z"/>
		</g>
		<g>
			<path style="fill:#35678F;" d="M441.983,244.26c0,0,0.688-9.181-2.437-22.427c0,0-5.052,11.109-8.863,21.058l6.903,5.784
				L441.983,244.26z"/>
			<path style="fill:#265173;" d="M437.586,248.675l4.397-4.415c0,0,0.688-9.181-2.437-22.427c0,0-0.927,15.654-2.126,26.702
				L437.586,248.675z"/>
		</g>
		<g>
			<path style="fill:#35678F;" d="M120.951,248.943c0,0-1.355-8.004-0.499-18.175c0,0,6.233,5.829,9.165,14.817L120.951,248.943z"/>
			<path style="fill:#265173;" d="M129.617,245.584c-2.932-8.987-9.165-14.817-9.165-14.817s3.158,7.964,5.038,16.416
				L129.617,245.584z"/>
		</g>
	</g>
	<g>
		<path style="fill:#B2D0F5;" d="M44.731,279.139c0,0-2.076-4.907,1.699-8.492c3.775-3.586,7.36-3.208,7.36-3.208
			s-5.095-12.079,6.228-16.608c11.323-4.53,19.627,6.416,19.627,6.416s0.378-1.509,2.454-2.453c2.076-0.944,3.397-0.566,3.397-0.566
			s1.321-17.363,18.118-18.307c16.797-0.943,19.439,9.059,19.439,9.059s3.397-7.172,12.078-7.549
			c8.682-0.377,10.191,1.132,10.191,1.132s6.165-9.436,23.151-4.34c16.985,5.095,17.426,19.816,17.426,19.816l-24.534,41.897
			L44.731,279.139z"/>
		<path style="fill:#99B8E0;" d="M65.169,277.888c-0.433,1.817-0.955,2.725-3.25,3.726l99.445,14.322l24.534-41.897
			c0,0-0.441-14.721-17.426-19.816c-16.985-5.096-23.15,4.34-23.15,4.34s-0.582-0.58-3.093-0.931
			c-0.039,0.545-0.15,1.089-0.351,1.626c-0.475,1.268-1.402,2.324-2.461,3.167c-3.333,2.652-8.217,3.25-12.031,1.351
			c-0.828-0.412-1.634-0.943-2.384-1.565c-1.344,1.5-1.948,2.77-1.948,2.77s-1.749-6.618-11.442-8.58
			c8.988,6.504,5.698,25.221-11.205,27.075c-11.432,1.254-15.438-9.318-15.438-9.318c-0.57-0.027-1.572,0.046-2.868,0.636
			c-2.076,0.944-2.453,2.453-2.453,2.453s-7.819-10.306-18.628-6.778c6.738-1.148,13.779,2.715,16.552,8.477
			C83.709,271.702,71.209,281.062,65.169,277.888z"/>
		<path style="fill:#A3C4E8;" d="M188.352,250.453c0,0,2.831-10.757,12.833-9.625c10.002,1.133,10.002,7.549,10.002,7.549
			s4.152-1.132,7.738,2.831c3.586,3.963-0.566,11.89-0.566,11.89l0.755,3.397c0,0,5.548-1.127,9.134,0.949
			c3.585,2.076,5.146,6.034,5.146,6.034s7.786-3.771,11.826,5.536c8.304,19.124-12.519,17.677-12.519,17.677l-21.515-1.698
			L188.352,250.453z"/>
		<path style="fill:#B2D0F5;" d="M237.798,295.181c0,0-3.963-9.248,0.377-14.155c4.34-4.907,7.36-5.095,7.36-5.095
			s-10.38-11.135-1.321-20.005c9.059-8.87,16.608-0.378,16.608-0.378s0-8.87,10.757-12.833c10.426-3.841,17.174,0.755,17.174,0.755
			s0.755-15.286,23.402-17.74c22.647-2.453,31.14,14.343,31.14,14.343s6.039-2.454,10.191,0.566c4.152,3.02,4.341,6.417,4.341,6.417
			s4.907-9.059,15.853-6.983c10.946,2.076,14.343,10.946,14.343,10.946l2.076,17.552L237.798,295.181z"/>
		<path style="fill:#99B8E0;" d="M385.059,246.44c-2.209-2.507-5.819-5.313-11.378-6.367c-0.306-0.058-0.606-0.107-0.902-0.147
			c-0.073,1.856-1.057,4.173-4.257,6.626c-7.549,5.788-10.694,0.504-10.694,0.504s-0.133-2.368-2.593-4.907
			c1.337,3.717-1.821,7.441-6.844,5.158c-5.536-2.516-5.095-7.234-5.095-7.234s-6.341-12.535-22.67-14.365
			c18.959,3.984,23.991,34.684,6.377,40.975c-18.047,6.446-26.479-6.294-26.479-6.294c3.722,9.35-11.266,14.598-15.544,5.036
			c3.02,19.376-18.205,19.268-24.157,8.304c0,0,1.258,9.059-5.536,9.814c-6.794,0.755-9.059-4.278-9.059-4.278l-2.768,1.761
			l-2.516,11.575l16.777-0.901l127.982-22.361L385.059,246.44z"/>
		<path style="fill:#B2D0F5;" d="M153.512,233.772c-2.672,0.641-9.391,4.816-5.178,8.182c3.37,2.693,15.443-0.893,15.06-5.417
			C163.247,234.801,160.097,232.192,153.512,233.772z"/>
		<path style="fill:#B2D0F5;" d="M395.573,249.887c0,0-2.076-9.814,6.039-12.645c8.116-2.831,14.721,6.606,14.721,6.606
			s1.133-6.417,7.738-7.172c6.606-0.755,11.89,6.039,11.89,6.039s10.569-19.438,28.309-16.985
			c17.74,2.454,20.949,10.946,20.949,10.946s13.399-2.642,20.005,8.304c6.605,10.946,1.887,18.306,1.887,18.306
			s2.831-5.095,8.304-3.208c5.473,1.887,5.096,6.794,5.096,6.794s2.454-6.417,8.116-3.397c5.662,3.02-0.189,7.737-0.189,7.737
			s5.284-1.132,5.661,3.397c0.378,4.529-50.767,9.247-50.767,9.247l-77.566-15.664L395.573,249.887z"/>
		<path style="fill:#99B8E0;" d="M528.436,271.212c0,0,5.851-4.718,0.189-7.738c-5.662-3.02-8.115,3.397-8.115,3.397
			s0.25-3.271-2.637-5.498c1.039,1.883-0.85,6.065-5.667,6.065c-5.284,0-5.095-4.152-5.095-4.152
			c2.228-3.255,2.724-10.664-1.887-18.306c-0.554-0.919-1.14-1.721-1.749-2.426c5.818,10.961-2.088,24.381-14.922,25.136
			c-13.072,0.769-17.363-7.297-17.363-7.297s-10.191,10.524-24.912,5.284c-14.847-5.284-10.318-22.962-10.318-22.962
			s-2.324-2.985-5.814-4.777c5.177,4.558,2.054,9.947-4.755,10.628c-6.28,0.628-8.553-3.443-9.141-4.83
			c-0.776-1.053-7.046-9.142-14.639-6.493c-8.115,2.831-6.039,12.645-6.039,12.645l10.192,18.306l77.566,15.664
			c0,0,51.145-4.718,50.767-9.247C533.72,270.08,528.436,271.212,528.436,271.212z"/>
		<g>
			<path style="fill:#C1E0FF;" d="M196.25,218.903c-2.707,0.017-2.775,4.276-0.893,5.834c0.624,0.517,2.486,1.038,3.216,0.606
				C201.027,223.89,198.844,218.877,196.25,218.903z"/>
			<path style="fill:#C1E0FF;" d="M255.227,242.121c-2.354,0.534-1.596,4.254,0.341,5.249c0.643,0.331,2.363,0.428,2.916-0.088
				C260.342,245.547,257.48,241.601,255.227,242.121z"/>
			<path style="fill:#C1E0FF;" d="M171.427,220.146c-1.799,1.827,1.233,3.599,3.371,2.855c1.043-0.33,1.869-1.052,1.779-2.067
				C176.351,218.363,172.662,218.509,171.427,220.146z"/>
			<path style="fill:#C1E0FF;" d="M128.714,226.341c1.648,1.085,5.958-2.438,4.293-4.268
				C131.408,220.311,125.437,224.182,128.714,226.341z"/>
			<path style="fill:#C1E0FF;" d="M347.854,234.327c1.949,0.307,4.417-4.682,2.145-5.661
				C347.814,227.724,343.976,233.716,347.854,234.327z"/>
			<path style="fill:#C1E0FF;" d="M436.177,233.195c1.949,0.307,4.418-4.682,2.146-5.661
				C436.138,226.592,432.3,232.583,436.177,233.195z"/>
			<path style="fill:#C1E0FF;" d="M492.374,232.464c1.648-1.086,0.111-6.436-2.228-5.629
				C487.896,227.61,489.097,234.623,492.374,232.464z"/>
			<path style="fill:#C1E0FF;" d="M298.064,224.328c1.648,1.085,5.957-2.438,4.293-4.268
				C300.758,218.299,294.787,222.169,298.064,224.328z"/>
			<path style="fill:#C1E0FF;" d="M119.33,228.113c0.119,0.534,1.356,0.799,1.99,0.098c0.327-0.363,0.64-0.969,0.398-1.575
				c-0.254-0.633-1.145-0.576-1.85-0.025C119.367,227.001,119.035,227.574,119.33,228.113z"/>
			<path style="fill:#C1E0FF;" d="M245.244,243.939c0.12,0.533,1.356,0.799,1.99,0.097c0.327-0.363,0.641-0.969,0.398-1.575
				c-0.254-0.633-1.145-0.575-1.85-0.025C245.281,242.827,244.949,243.4,245.244,243.939z"/>
			<path style="fill:#C1E0FF;" d="M181.902,214.027c-0.291-0.347-1.029-0.612-1.358-0.198c-0.327,0.208-0.393,0.935-0.063,1.393
				c0.226,0.313,0.764,0.59,1.278,0.31C182.287,215.245,182.221,214.247,181.902,214.027z"/>
			<path style="fill:#C1E0FF;" d="M319.328,220.634c-0.291-0.347-1.029-0.611-1.358-0.198c-0.327,0.208-0.393,0.935-0.063,1.393
				c0.226,0.313,0.764,0.59,1.278,0.31C319.713,221.851,319.647,220.854,319.328,220.634z"/>
			<path style="fill:#C1E0FF;" d="M363.758,235.863c-0.29-0.347-1.029-0.611-1.358-0.197c-0.327,0.207-0.393,0.934-0.063,1.392
				c0.226,0.313,0.764,0.59,1.278,0.311C364.143,237.08,364.077,236.083,363.758,235.863z"/>
			<path style="fill:#C1E0FF;" d="M384.141,229.824c-0.29-0.347-1.029-0.612-1.358-0.197c-0.327,0.207-0.393,0.934-0.063,1.392
				c0.225,0.313,0.764,0.59,1.277,0.31C384.526,231.041,384.459,230.044,384.141,229.824z"/>
			<path style="fill:#C1E0FF;" d="M451.724,222.081c-0.29-0.348-1.029-0.611-1.358-0.198c-0.327,0.208-0.393,0.935-0.063,1.393
				c0.226,0.313,0.764,0.59,1.278,0.31C452.109,223.299,452.043,222.301,451.724,222.081z"/>
			<path style="fill:#C1E0FF;" d="M478.378,225.169c-0.291-0.348-1.029-0.612-1.358-0.198c-0.327,0.207-0.393,0.934-0.063,1.393
				c0.226,0.313,0.764,0.59,1.277,0.31C478.763,226.386,478.696,225.388,478.378,225.169z"/>
			<path style="fill:#C1E0FF;" d="M508.574,239.26c-0.291-0.348-1.029-0.612-1.358-0.198c-0.328,0.208-0.393,0.935-0.063,1.393
				c0.226,0.313,0.764,0.59,1.277,0.31C508.959,240.477,508.892,239.48,508.574,239.26z"/>
			<path style="fill:#C1E0FF;" d="M508.342,223.717c-0.29-0.347-1.029-0.612-1.358-0.197c-0.327,0.207-0.393,0.934-0.063,1.392
				c0.226,0.313,0.764,0.59,1.278,0.31C508.727,224.935,508.66,223.937,508.342,223.717z"/>
			<path style="fill:#C1E0FF;" d="M499.031,223.843c-0.29-0.347-1.029-0.611-1.358-0.198c-0.327,0.208-0.393,0.935-0.063,1.393
				c0.226,0.313,0.764,0.59,1.277,0.31C499.417,225.06,499.35,224.063,499.031,223.843z"/>
			<path style="fill:#C1E0FF;" d="M524.761,253.599c-0.291-0.347-1.029-0.611-1.358-0.198c-0.327,0.208-0.394,0.935-0.063,1.393
				c0.226,0.313,0.764,0.59,1.278,0.31C525.146,254.816,525.08,253.818,524.761,253.599z"/>
			<path style="fill:#C1E0FF;" d="M418.741,232.717c-0.291-0.347-1.029-0.611-1.358-0.197c-0.327,0.207-0.393,0.934-0.063,1.392
				c0.226,0.313,0.764,0.59,1.278,0.311C419.125,233.935,419.059,232.937,418.741,232.717z"/>
			<path style="fill:#C1E0FF;" d="M431.071,213.593c-0.291-0.348-1.029-0.612-1.358-0.198c-0.327,0.207-0.393,0.934-0.063,1.392
				c0.226,0.313,0.764,0.59,1.278,0.31C431.456,214.811,431.389,213.813,431.071,213.593z"/>
			<path style="fill:#C1E0FF;" d="M307.474,207.244c-0.29-0.348-1.029-0.611-1.358-0.198c-0.327,0.207-0.393,0.934-0.063,1.392
				c0.226,0.314,0.764,0.59,1.278,0.311C307.86,208.461,307.793,207.463,307.474,207.244z"/>
			<path style="fill:#C1E0FF;" d="M257.399,227.374c-0.291-0.348-1.029-0.612-1.358-0.198c-0.327,0.208-0.393,0.935-0.063,1.393
				c0.225,0.313,0.764,0.59,1.277,0.31C257.785,228.592,257.718,227.594,257.399,227.374z"/>
			<path style="fill:#C1E0FF;" d="M277.179,236.99c-0.29-0.347-1.029-0.612-1.358-0.197c-0.327,0.207-0.393,0.934-0.063,1.392
				c0.226,0.313,0.764,0.59,1.277,0.311C277.564,238.208,277.497,237.21,277.179,236.99z"/>
			<path style="fill:#C1E0FF;" d="M358.205,219.879c-0.29-0.347-1.029-0.612-1.358-0.198c-0.327,0.208-0.393,0.935-0.063,1.393
				c0.226,0.313,0.764,0.59,1.277,0.31C358.591,221.096,358.524,220.099,358.205,219.879z"/>
			<path style="fill:#C1E0FF;" d="M406.016,225.918c-0.291-0.347-1.029-0.611-1.358-0.197c-0.327,0.207-0.393,0.934-0.063,1.392
				c0.226,0.313,0.764,0.59,1.277,0.31C406.401,227.136,406.334,226.139,406.016,225.918z"/>
			<path style="fill:#C1E0FF;" d="M474.712,217.111c-0.29-0.348-1.029-0.612-1.358-0.198c-0.327,0.207-0.393,0.934-0.063,1.392
				c0.226,0.313,0.764,0.59,1.277,0.311C475.097,218.329,475.03,217.331,474.712,217.111z"/>
			<path style="fill:#C1E0FF;" d="M342.704,209.256c-0.291-0.347-1.029-0.611-1.358-0.197c-0.327,0.207-0.393,0.934-0.063,1.392
				c0.225,0.313,0.763,0.59,1.278,0.311C343.089,210.474,343.022,209.477,342.704,209.256z"/>
			<path style="fill:#C1E0FF;" d="M127.454,231.891c-0.866-0.182-1.633,1.372-0.878,1.703
				C127.329,234.183,128.581,231.974,127.454,231.891z"/>
			<path style="fill:#C1E0FF;" d="M91.98,235.268c-0.209,0.999-1,1.678-1.767,1.518c-0.767-0.161-1.219-1.1-1.01-2.098
				c0.209-0.999,1-1.678,1.767-1.518C91.737,233.33,92.189,234.269,91.98,235.268z"/>
			<path style="fill:#C1E0FF;" d="M313.167,217.15c-0.209,0.998-0.999,1.678-1.767,1.517c-0.767-0.161-1.219-1.1-1.01-2.098
				c0.209-0.998,1-1.678,1.767-1.517C312.924,215.212,313.376,216.152,313.167,217.15z"/>
			<path style="fill:#C1E0FF;" d="M263.973,236.777c-0.209,0.998-1,1.678-1.767,1.517c-0.767-0.16-1.219-1.099-1.01-2.098
				c0.208-0.998,1-1.678,1.767-1.517C263.729,234.84,264.181,235.779,263.973,236.777z"/>
			<path style="fill:#C1E0FF;" d="M337.353,225.084c0,1.02-0.635,1.847-1.419,1.847c-0.783,0-1.418-0.827-1.418-1.847
				c0-1.02,0.635-1.847,1.418-1.847C336.718,223.237,337.353,224.064,337.353,225.084z"/>
			<path style="fill:#C1E0FF;" d="M365.255,229.228c-0.209,0.999-0.999,1.678-1.767,1.517c-0.767-0.16-1.219-1.099-1.01-2.098
				c0.209-0.999,1-1.678,1.767-1.518C365.012,227.291,365.464,228.23,365.255,229.228z"/>
			<path style="fill:#C1E0FF;" d="M397.042,231.659c-0.329,0.966-1.196,1.544-1.938,1.292c-0.742-0.253-1.077-1.24-0.749-2.205
				c0.329-0.966,1.196-1.544,1.938-1.292C397.035,229.706,397.37,230.694,397.042,231.659z"/>
			<path style="fill:#C1E0FF;" d="M343.118,222.86c-0.153,0.731-0.732,1.229-1.294,1.111c-0.562-0.118-0.893-0.805-0.74-1.537
				c0.153-0.731,0.732-1.228,1.294-1.111C342.939,221.441,343.271,222.128,343.118,222.86z"/>
			<path style="fill:#C1E0FF;" d="M427.918,224.23c0.609,0.818,0.593,1.861-0.036,2.328c-0.628,0.467-1.632,0.183-2.24-0.636
				c-0.609-0.818-0.593-1.861,0.036-2.328C426.307,223.127,427.31,223.411,427.918,224.23z"/>
			<path style="fill:#C1E0FF;" d="M500.641,230.848c0.916-0.448,1.938-0.241,2.282,0.463c0.344,0.704-0.12,1.638-1.036,2.086
				c-0.917,0.448-1.938,0.241-2.283-0.463C499.261,232.23,499.724,231.296,500.641,230.848z"/>
			<path style="fill:#C1E0FF;" d="M513.194,253.394c0.72-1.085,1.98-1.517,2.814-0.963c0.833,0.554,0.925,1.882,0.204,2.967
				c-0.72,1.085-1.98,1.516-2.814,0.962C512.565,255.808,512.474,254.479,513.194,253.394z"/>
			<path style="fill:#C1E0FF;" d="M86.971,240.97c0.148,0.496-0.042,0.991-0.425,1.105c-0.382,0.114-0.812-0.196-0.96-0.691
				c-0.148-0.496,0.042-0.99,0.425-1.104C86.394,240.166,86.824,240.475,86.971,240.97z"/>
		</g>
		<path style="fill:#C1E0FF;" d="M99.288,238.137c-2.663,0.679-9.323,4.949-5.062,8.255c3.408,2.645,15.428-1.112,14.982-5.629
			C109.037,239.029,105.849,236.464,99.288,238.137z"/>
		<path style="fill:#C1E0FF;" d="M302.401,230.628c-3.374,1.245-11.461,7.708-5.466,11.432c4.796,2.979,19.93-3.544,18.735-9.363
			C315.211,230.464,310.714,227.559,302.401,230.628z"/>
		<path style="fill:#B2D0F5;" d="M346.038,250.902c-3.562,1.481-11.89,9.424-5.204,14.29c5.349,3.891,21.269-3.937,19.631-11.317
			C359.836,251.04,354.814,247.251,346.038,250.902z"/>
		<path style="fill:#C1E0FF;" d="M270.484,246.023c-2.38,0.928-8.018,5.926-3.674,9.011c3.475,2.468,14.134-2.443,13.169-7.105
			C279.609,246.137,276.349,243.735,270.484,246.023z"/>
		<path style="fill:#C1E0FF;" d="M453.934,228.309c-3.287,0.995-11.363,6.8-5.858,10.868c4.404,3.254,19.202-2.132,18.392-7.933
			C466.157,229.016,462.033,225.856,453.934,228.309z"/>
		<path style="fill:#C1E0FF;" d="M484.934,238.436c-2.856,0.799-9.936,5.661-5.259,9.274c3.742,2.891,16.617-1.485,16.025-6.508
			C495.473,239.273,491.972,236.469,484.934,238.436z"/>
		<path style="fill:#C1E0FF;" d="M455.87,250.703c-2.856,0.798-9.936,5.66-5.258,9.274c3.741,2.89,16.617-1.486,16.025-6.509
			C466.409,251.54,462.908,248.736,455.87,250.703z"/>
		<path style="fill:#C1E0FF;" d="M61.18,252.646c-2.223,0.63-7.736,4.775-4.102,8.15c2.907,2.699,12.927-0.838,12.473-5.354
			C69.376,253.708,66.656,251.092,61.18,252.646z"/>
		<path style="fill:#C1E0FF;" d="M49.778,270.492c-1.446,0.466-4.972,3.319-2.505,5.452c1.973,1.706,8.476-0.853,8.072-3.811
			C55.189,270.998,53.341,269.343,49.778,270.492z"/>
		<path style="fill:#C1E0FF;" d="M91.796,250.224c-1.123,0.362-3.86,2.576-1.945,4.232c1.532,1.324,6.58-0.662,6.266-2.958
			C95.996,250.617,94.561,249.332,91.796,250.224z"/>
		<path style="fill:#C1E0FF;" d="M263.323,260.423c-0.966,0.979-2.605,4.745,0.268,5.426c2.299,0.545,6.45-4.229,4.888-6.436
			C267.879,258.566,265.703,258.011,263.323,260.423z"/>
		<path style="fill:#C1E0FF;" d="M287.982,257.152c-0.966,0.979-2.604,4.745,0.269,5.426c2.298,0.545,6.45-4.229,4.888-6.435
			C292.539,255.296,290.363,254.739,287.982,257.152z"/>
		<path style="fill:#C1E0FF;" d="M420.809,238.257c-1.241,0.592-4.062,3.577-1.592,5.194c1.976,1.294,7.504-1.785,6.785-4.39
			C425.726,238.06,423.868,236.798,420.809,238.257z"/>
		<path style="fill:#C1E0FF;" d="M440.625,240.9c-1.241,0.592-4.062,3.576-1.592,5.194c1.976,1.294,7.504-1.785,6.785-4.391
			C445.542,240.703,443.684,239.439,440.625,240.9z"/>
		<path style="fill:#C1E0FF;" d="M476.631,250.859c-1.175,0.715-3.68,3.968-1.059,5.328c2.096,1.088,7.285-2.533,6.306-5.053
			C481.503,250.166,479.527,249.097,476.631,250.859z"/>
		<path style="fill:#C1E0FF;" d="M511.248,260.677c-0.759,0.315-2.533,2.009-1.109,3.049c1.139,0.833,4.531-0.833,4.183-2.41
			C514.187,260.711,513.117,259.901,511.248,260.677z"/>
	</g>
	<g>
		<g>
			<g>
				<path style="fill:#396F91;" d="M361.172,272.353c0,0-2.476-7.377-9.53-16.8c0,0-0.572,10.177-0.482,19.079l7.764,2.474
					L361.172,272.353z"/>
				<path style="fill:#295875;" d="M358.924,277.106l2.248-4.752c0,0-2.476-7.377-9.53-16.8c0,0,4.43,12.505,7.095,21.493
					L358.924,277.106z"/>
			</g>
		</g>
		<g>
			<path style="fill:#35678F;" d="M100.198,286.914c0,0-4.801-9.582-15.841-20.944c0,0,2.08,19.295,4.22,31.51l8.841-1.924
				L100.198,286.914z"/>
			<path style="fill:#265173;" d="M97.418,295.556l2.78-8.643c0,0-4.801-9.582-15.841-20.944c0,0,7.405,17.795,12.812,29.548
				L97.418,295.556z"/>
		</g>
		<g>
			<path style="fill:#35678F;" d="M429.701,277.342c0,0,1.482-5.812,0.978-14.666c0,0-6.194,8.923-9.767,14.875l4.445,2.427
				L429.701,277.342z"/>
			<path style="fill:#265173;" d="M425.357,279.978l4.344-2.637c0,0,1.482-5.812,0.978-14.666c0,0-3.392,10.241-5.414,17.194
				L425.357,279.978z"/>
		</g>
	</g>
	<g>
		<polygon style="fill:#B13647;" points="202.542,235.133 151.08,268.062 151.908,298.012 253.672,298.012 253.01,257.141 		"/>
		<path style="fill:#C25359;" d="M253.01,257.14l-50.469-22.007l-33.26,21.015c5.957,12.41,36.072,37.562,84.151,29.787
			L253.01,257.14z"/>
		<g>
			<polygon style="fill:#8E1C32;" points="253.526,290.02 151.694,290.283 151.728,291.524 253.546,291.261 			"/>
			<polygon style="fill:#8E1C32;" points="253.196,270.463 151.132,269.937 151.167,271.178 253.217,271.704 			"/>
			<polygon style="fill:#8E1C32;" points="253.36,278.101 151.411,280.037 151.434,280.855 253.373,278.92 			"/>
			<polygon style="fill:#8E1C32;" points="252.799,261.431 151.411,263.367 151.434,263.848 252.812,261.913 			"/>
			<polygon style="fill:#8E1C32;" points="250.561,256.961 168.189,256.273 166.885,257.108 252.386,257.757 			"/>
			<polygon style="fill:#8E1C32;" points="227.605,247.37 184.612,247.914 183.307,248.749 229.429,248.166 			"/>
		</g>
		<g>
			<polygon style="opacity:0.5;fill:#8C1C82;" points="197.311,266.955 198.205,295.992 216.098,295.579 216.098,266.955 			"/>
			<polygon style="fill:#514363;" points="198.8,266.955 199.623,295.992 216.098,295.579 216.098,266.955 			"/>
			<path style="fill:#3F3452;" d="M202.406,281.57c0.002-0.734-0.602-1.384-1.216-1.314c-0.614,0.069-1.103,0.836-1,1.56
				c0.059,0.743,0.699,1.044,1.108,1.033C201.939,282.831,202.404,282.303,202.406,281.57z"/>
			<path style="fill:#FFC387;" d="M202.336,281.289c0.002-0.578-0.564-1.09-1.139-1.035c-0.575,0.055-1.034,0.658-0.937,1.228
				c0.055,0.585,0.655,0.822,1.038,0.814C201.898,282.283,202.334,281.867,202.336,281.289z"/>
			<polygon style="fill:#615375;" points="201.129,269.112 201.403,278.786 214.249,278.715 214.181,269.399 			"/>
			<polygon style="fill:#615375;" points="201.403,283.654 214.317,283.429 214.317,292.503 201.744,292.578 			"/>
		</g>
		<polygon style="opacity:0.5;fill:#8C1C82;" points="253.119,263.855 253.01,257.14 202.542,235.133 151.081,268.061 
			151.232,275.915 203.204,241.917 		"/>
		<polygon style="fill:#8A1B35;" points="151.246,268.889 151.908,298.012 99.122,298.012 97.964,269.551 		"/>
		<g style="opacity:0.5;">
			<polygon style="fill:#8C1C82;" points="151.732,290.282 98.803,290.144 98.853,291.385 151.76,291.522 			"/>
			<polygon style="fill:#8C1C82;" points="151.27,269.947 97.992,270.221 98.042,271.461 151.298,271.188 			"/>
			<polygon style="fill:#8C1C82;" points="151.498,280.012 98.349,279.002 98.383,279.821 151.517,280.831 			"/>
		</g>
		<g>
			<path style="fill:#DB9A6A;" d="M106.816,276.153c0.641-0.597,7.269-0.37,8.066,0.124c0.797,0.494,0.33,11.52,0.33,11.52
				l-8.223-0.374C106.989,287.424,106.174,276.75,106.816,276.153z"/>
			<path style="fill:#312B42;" d="M108.251,278.059c0.419-0.451,4.751-0.279,5.272,0.094c0.521,0.374,0.216,8.71,0.216,8.71
				l-5.374-0.282C108.364,286.58,107.832,278.51,108.251,278.059z"/>
			<path style="fill:#3F3452;" d="M113.523,278.153c-0.521-0.374-4.854-0.545-5.273-0.094c-0.225,0.243-0.174,2.698-0.08,4.911
				l5.654,0.06C113.844,280.785,113.799,278.351,113.523,278.153z"/>
			<rect x="110.758" y="277.051" style="fill:#DB9A6A;" width="0.498" height="10.902"/>
		</g>
		<path style="fill:#DDE5F2;" d="M147.771,265.083c8.439-2.068,54.977-37.231,54.977-37.231l-69.611,7.166l-41.295,31.388
			C91.842,266.407,139.332,267.151,147.771,265.083z"/>
		<path style="fill:#C3CFE6;" d="M133.102,235.046l-41.261,31.361c0,0,47.491,0.745,55.93-1.324
			c2.699-0.662,9.296-4.709,17.021-9.908C129.965,254.53,133.102,235.046,133.102,235.046z"/>
		<g>
			<path style="opacity:0.5;fill:#8C1C82;" d="M141.006,290.209c0,0-1.452,2.307-9.301,2.4c-6.733,0.08-8.082-3.036-8.082-3.036
				L141.006,290.209z"/>
			<path style="fill:#DB9A6A;" d="M126.828,276.277c0.438-0.627,9.14-0.681,9.929,0c0.788,0.681,0.414,13.669,0.414,13.669
				l-10.278-1.121C126.893,288.825,126.39,276.905,126.828,276.277z"/>
			<path style="fill:#312B42;" d="M128.334,278.079c0.293-0.421,6.122-0.456,6.65,0c0.528,0.456,0.278,10.768,0.278,10.768
				l-6.885-0.751C128.377,288.097,128.041,278.499,128.334,278.079z"/>
			<path style="fill:#3F3452;" d="M135.321,283.659c-0.004-2.643-0.072-5.352-0.337-5.58c-0.528-0.456-6.357-0.421-6.65,0
				c-0.156,0.223-0.134,3.036-0.079,5.625L135.321,283.659z"/>
			<rect x="131.502" y="277.426" style="fill:#DB9A6A;" width="0.498" height="10.901"/>
			<path style="fill:#F8FBFF;" d="M123.004,290.075c0.008-1.153,0.949-2.08,2.102-2.072l13.827,0.103
				c1.153,0.009,2.08,0.95,2.072,2.103L123.004,290.075z"/>
		</g>
		<path style="fill:#F8FBFF;" d="M257.162,255.184c-3.192-1.972-11.436-6.064-20.534-10.785
			c-14.851-7.707-32.007-16.624-33.88-16.547c-1.586,0.065-12.62,8.349-25.317,17.167c-12.871,8.94-27.412,18.42-29.661,19.253
			c-4.468,1.655-52.785,1.472-55.929,2.134c-3.144,0.661-3.475,4.137,0.496,4.964c4.664,0.972,50.8,0.348,55.557-0.975
			c5.833,0.331,52.165-34.353,54.978-34.559c2.527-0.186,40.887,19.493,51.763,23.569
			C258.305,260.781,259.795,256.81,257.162,255.184z"/>
		<g>
			<path style="fill:#FFC387;" d="M172.236,269.593c-0.566,0.707,0.092,15.401,0.092,15.401l12.794-0.165
				c0,0-0.144-15.211-0.807-15.705C183.653,268.63,172.803,268.887,172.236,269.593z"/>
			<polygon style="fill:#3F3452;" points="173.734,271.724 173.776,284.279 183.423,284.124 182.842,271.321 			"/>
			<path style="opacity:0.5;fill:#8C1C82;" d="M169.96,286.242c0,0,3.61,2.072,10.263,1.812c6.653-0.261,7.731-2.369,7.731-2.369
				L169.96,286.242z"/>
			<polygon style="fill:#5E5175;" points="182.842,271.321 173.734,271.724 173.755,277.926 183.134,277.775 			"/>
			<polygon style="fill:#FFC387;" points="178.038,270.608 178.426,284.653 179.122,284.891 178.687,270.547 			"/>
			<path style="fill:#F8FBFF;" d="M169.96,286.242c-0.036-1.152,0.87-2.115,2.022-2.151l13.821-0.428
				c1.152-0.036,2.115,0.869,2.151,2.021L169.96,286.242z"/>
		</g>
		<g>
			<path style="fill:#FFC387;" d="M226.939,267.428c-0.424,0.524,0.534,14.961,0.534,14.961l10.152-0.179
				c0,0,1.06-13.324,0.356-13.892C237.277,267.75,227.362,266.904,226.939,267.428z"/>
			<polygon style="fill:#3F3452;" points="228.349,269.339 228.744,282.031 236.302,281.898 236.571,270.002 			"/>
			<polygon style="fill:#5E5175;" points="228.568,276.39 236.43,276.26 236.571,270.002 228.349,269.339 			"/>
			<polygon style="fill:#FFC387;" points="232.924,268.878 231.981,268.807 232.096,282.308 232.965,282.294 			"/>
			<path style="fill:#F8FBFF;" d="M223.688,283.636c0-1.18,0.957-2.138,2.137-2.138h14.16c1.18,0,2.137,0.957,2.137,2.138H223.688z"
				/>
			<path style="opacity:0.5;fill:#8C1C82;" d="M223.688,283.636h18.434c0,0-2.33,1.716-8.667,1.817
				C227.119,285.553,223.688,283.636,223.688,283.636z"/>
		</g>
		<g>
			<path style="fill:#8E1C32;" d="M212.613,260.678c-2.393,2.901-6.613,3.371-9.426,1.051c-2.812-2.321-3.152-6.553-0.759-9.454
				c2.394-2.901,6.614-3.372,9.426-1.051C214.667,253.544,215.007,257.777,212.613,260.678z"/>
			<path style="fill:#F8FBFF;" d="M201.658,253.419c-1.304-1.033,1.388-5.569,5.873-5.569c4.485,0,7.242,4.719,5.606,5.559
				c-1.171,0.602-2.009-3.317-5.747-3.317S202.779,254.306,201.658,253.419z"/>
			<path style="fill:#FFC387;" d="M212.197,259.633c-2.203,2.671-6.099,3.095-8.701,0.947c-2.603-2.147-2.926-6.053-0.723-8.723
				c2.204-2.67,6.1-3.094,8.701-0.947C214.076,253.057,214.4,256.963,212.197,259.633z"/>
			<path style="fill:#3F3452;" d="M211.05,258.687c-1.667,2.02-4.614,2.341-6.583,0.716c-1.969-1.624-2.214-4.579-0.546-6.599
				c1.667-2.02,4.614-2.341,6.583-0.716C212.472,253.712,212.716,256.666,211.05,258.687z"/>
			<path style="fill:#5E5175;" d="M212.072,254.752c-0.193-1.014-0.719-1.963-1.569-2.665c-1.969-1.624-4.917-1.304-6.583,0.716
				c-0.541,0.655-0.877,1.408-1.021,2.182c0.188,0.206,0.387,0.406,0.608,0.588C206.059,257.681,209.858,257.3,212.072,254.752z"/>
			<rect x="207.32" y="250.221" style="fill:#FFC387;" width="0.491" height="11.155"/>
			
				<rect x="207.345" y="250.221" transform="matrix(0.0478 0.9989 -0.9989 0.0478 453.1547 36.2472)" style="fill:#FFC387;" width="0.441" height="11.155"/>
		</g>
		<g style="opacity:0.5;">
			<path style="fill:#B8C6D8;" d="M178.648,235.614c-0.234,0-0.432-0.177-0.452-0.415c-0.021-0.249,0.166-0.469,0.415-0.489
				l6.961-0.575c0.255,0.029,0.469,0.169,0.489,0.415c0.02,0.249-0.166,0.469-0.415,0.489l-6.961,0.575
				C178.674,235.614,178.66,235.614,178.648,235.614z"/>
			<path style="fill:#B8C6D8;" d="M136.587,239.104c-0.234,0-0.432-0.178-0.452-0.415c-0.02-0.249,0.166-0.469,0.415-0.489
				l21.191-1.756c0.292-0.006,0.469,0.166,0.489,0.415c0.02,0.248-0.166,0.469-0.415,0.489l-21.191,1.756
				C136.613,239.104,136.598,239.104,136.587,239.104z"/>
			<path style="fill:#B8C6D8;" d="M151.835,242.281c-0.238,0-0.435-0.18-0.452-0.42c-0.017-0.249,0.172-0.466,0.421-0.483
				l21.331-1.499c0.203-0.006,0.466,0.169,0.483,0.421c0.018,0.249-0.172,0.466-0.421,0.483l-21.331,1.498
				C151.855,242.281,151.846,242.281,151.835,242.281z"/>
			<path style="fill:#B8C6D8;" d="M145.634,242.747c-0.237,0-0.435-0.18-0.452-0.42c-0.017-0.249,0.172-0.466,0.421-0.484
				l2.954-0.209c0.209-0.02,0.466,0.169,0.483,0.421c0.018,0.249-0.172,0.466-0.421,0.483l-2.954,0.208
				C145.654,242.747,145.645,242.747,145.634,242.747z"/>
			<path style="fill:#B8C6D8;" d="M166.058,246.074c-0.24,0-0.438-0.186-0.452-0.426c-0.014-0.249,0.177-0.463,0.426-0.478
				l4.124-0.234c0.257-0.003,0.463,0.177,0.477,0.426c0.015,0.249-0.177,0.463-0.426,0.478l-4.124,0.234
				C166.075,246.074,166.067,246.074,166.058,246.074z"/>
			<path style="fill:#B8C6D8;" d="M127.495,248.285c-0.237,0-0.438-0.186-0.452-0.426c-0.015-0.249,0.177-0.463,0.426-0.477
				l7.948-0.455c0.009,0,0.017,0,0.026,0c0.238,0,0.438,0.186,0.452,0.426c0.014,0.249-0.178,0.463-0.426,0.477l-7.948,0.455
				C127.512,248.285,127.503,248.285,127.495,248.285z"/>
			<path style="fill:#B8C6D8;" d="M132.286,252.526c-0.24,0-0.441-0.189-0.452-0.432c-0.011-0.248,0.183-0.46,0.432-0.472
				l14.904-0.652c0.286-0.02,0.463,0.183,0.472,0.432c0.011,0.249-0.183,0.46-0.432,0.471l-14.904,0.653
				C132.3,252.526,132.291,252.526,132.286,252.526z"/>
			<path style="fill:#B8C6D8;" d="M111.621,257.831c-0.243,0-0.446-0.192-0.452-0.438c-0.009-0.251,0.189-0.46,0.438-0.466
				l21.168-0.629c0.192-0.003,0.46,0.183,0.466,0.438c0.008,0.252-0.189,0.46-0.438,0.466l-21.168,0.629
				C111.629,257.831,111.626,257.831,111.621,257.831z"/>
			<path style="fill:#B8C6D8;" d="M139.745,261.976c-0.246,0-0.449-0.197-0.452-0.446c-0.006-0.249,0.195-0.455,0.446-0.457
				l8.609-0.132c0,0,0.002,0,0.005,0c0.246,0,0.449,0.197,0.452,0.446c0.006,0.248-0.195,0.454-0.446,0.457l-8.609,0.132
				C139.75,261.976,139.747,261.976,139.745,261.976z"/>
			<path style="fill:#B8C6D8;" d="M103.178,262.531c-0.246,0-0.449-0.197-0.452-0.446c-0.006-0.249,0.194-0.454,0.446-0.457
				l4.799-0.074c0,0,0.003,0,0.006,0c0.246,0,0.449,0.197,0.452,0.446c0.006,0.248-0.195,0.455-0.446,0.458l-4.799,0.074
				C103.183,262.531,103.18,262.531,103.178,262.531z"/>
		</g>
	</g>
	<g>
		<polygon style="fill:#FFC174;" points="390.543,253.445 390.396,271.889 363.836,271.594 363.098,251.232 376.734,236.908 		"/>
		<path style="fill:#FFDD92;" d="M376.734,236.908l-13.636,14.324l0.363,10.025c9.19,3.277,21.066-2.12,24.185-11.842
			L376.734,236.908z"/>
		<g style="opacity:0.3;">
			<polygon style="fill:#9B4578;" points="390.429,267.759 363.694,267.69 363.719,268.386 390.423,268.455 			"/>
			<polygon style="fill:#9B4578;" points="390.519,255.522 363.293,255.662 363.318,256.358 390.513,256.218 			"/>
			<polygon style="fill:#9B4578;" points="390.477,261.737 363.46,261.224 363.476,261.683 390.473,262.195 			"/>
			<polygon style="fill:#9B4578;" points="389.644,252.369 363.121,251.862 363.131,252.133 389.874,252.643 			"/>
			<polygon style="fill:#9B4578;" points="386.681,248.82 365.224,248.999 364.793,249.451 387.066,249.282 			"/>
			<polygon style="fill:#9B4578;" points="382.624,243.961 370.17,243.804 369.737,244.257 383.011,244.425 			"/>
		</g>
		<g>
			<path style="fill:#FFE8C2;" d="M388.385,255.369c0.226,0.369-0.037,7.769-0.037,7.769l-5.107-0.086c0,0,0.057-7.669,0.322-7.928
				C383.828,254.867,388.159,255.001,388.385,255.369z"/>
			<polygon style="fill:#31435A;" points="387.787,256.209 387.771,262.765 383.92,262.684 384.152,255.999 			"/>
			<path style="opacity:0.4;fill:#9B4578;" d="M389.154,263.616c0,0-1.382,0.794-3.93,0.694c-2.548-0.1-2.961-0.907-2.961-0.907
				L389.154,263.616z"/>
			<polygon style="fill:#4B617D;" points="384.152,255.999 387.787,256.209 387.779,259.448 384.035,259.368 			"/>
			<path style="fill:#F8FBFF;" d="M389.154,263.616c0.014-0.441-0.333-0.81-0.774-0.824l-5.293-0.164
				c-0.442-0.014-0.81,0.333-0.824,0.774L389.154,263.616z"/>
		</g>
		<g>
			<path style="fill:#FFE8C2;" d="M379.409,247.42c0.262,0.177,0.09,3.941,0.09,3.941l-5.781-0.047c0,0-0.065-3.894,0.23-4.017
				C374.243,247.173,379.147,247.242,379.409,247.42z"/>
			<polygon style="fill:#31435A;" points="378.827,248.031 378.918,251.179 374.399,251.14 374.558,247.93 			"/>
			<path style="opacity:0.4;fill:#9B4578;" d="M380.441,251.836c0,0-1.548,0.794-4.401,0.694c-2.853-0.1-3.315-0.907-3.315-0.907
				L380.441,251.836z"/>
			<polygon style="fill:#4B617D;" points="374.558,247.93 378.827,248.031 378.872,249.586 374.478,249.548 			"/>
			<path style="fill:#F8FBFF;" d="M380.441,251.836c0.015-0.441-0.373-0.81-0.867-0.824l-5.926-0.164
				c-0.494-0.014-0.907,0.333-0.923,0.774L380.441,251.836z"/>
		</g>
		<g>
			<path style="fill:#FFE8C2;" d="M370.156,255.35c0.186,0.277-0.225,7.39-0.225,7.39l-4.465-0.094c0,0-0.466-6.767-0.157-7.067
				C365.618,255.278,369.969,255.072,370.156,255.35z"/>
			<polygon style="fill:#31435A;" points="369.535,256.086 369.372,262.55 366.047,262.48 365.929,256.194 			"/>
			<polygon style="fill:#4B617D;" points="369.449,259.569 365.991,259.501 365.929,256.194 369.535,256.086 			"/>
			<path style="fill:#F8FBFF;" d="M371.093,263.217c0-0.452-0.367-0.818-0.819-0.818h-5.422c-0.452,0-0.819,0.366-0.819,0.818
				H371.093z"/>
			<path style="opacity:0.4;fill:#9B4578;" d="M371.093,263.217h-7.06c0,0,0.893,0.657,3.319,0.696
				C369.779,263.951,371.093,263.217,371.093,263.217z"/>
		</g>
		<polygon style="opacity:0.4;fill:#9B4578;" points="363.098,251.232 363.254,255.529 376.607,240.666 390.5,258.912 
			390.543,253.445 376.734,236.908 		"/>
		<polygon style="fill:#DB8352;" points="390.543,253.445 420.314,254.775 419.907,271.742 390.396,271.889 		"/>
		<polygon style="fill:#DDE5F2;" points="409.062,237.361 423.375,254.33 390.248,252.412 376.642,233.82 		"/>
		<g style="opacity:0.3;">
			<polygon style="fill:#9B4578;" points="390.44,268.456 419.982,268.61 419.999,267.915 390.434,267.759 			"/>
			<polygon style="fill:#9B4578;" points="420.288,255.874 390.526,255.525 390.521,256.22 420.272,256.57 			"/>
			<polygon style="fill:#9B4578;" points="420.153,261.478 390.477,261.736 390.473,262.195 420.142,261.937 			"/>
		</g>
		<path style="fill:#F8FBFF;" d="M390.839,251.969c-1.033-0.737-12.69-18.15-14.018-18.172
			c-1.328-0.022-14.165,15.663-15.641,17.465c-1.096,1.338-1.057,1.918-0.764,2.45c0.275,0.5,1.084,0.667,1.908-0.084
			c3.752-3.416,13.691-15.986,14.247-16.081c0.635-0.109,12.094,16.582,13.717,17.415c1.623,0.834,31.275,1.722,33.013,1.249
			c1.295-0.352,1.261-2.183-0.349-2.472C420.785,253.351,391.871,252.707,390.839,251.969z"/>
		<g>
			<polygon style="opacity:0.5;fill:#9B4578;" points="381.527,256.897 381.07,271.786 371.915,271.656 371.915,256.897 			"/>
			<polygon style="fill:#634840;" points="380.765,256.897 380.345,271.779 371.915,271.656 371.915,256.897 			"/>
			<path style="fill:#543B35;" d="M378.92,264.374c-0.001-0.375,0.308-0.708,0.623-0.672c0.314,0.036,0.564,0.428,0.511,0.798
				c-0.03,0.38-0.358,0.534-0.566,0.528C379.16,265.02,378.921,264.749,378.92,264.374z"/>
			<path style="fill:#FFC387;" d="M378.957,264.23c-0.001-0.296,0.288-0.558,0.583-0.53c0.294,0.028,0.529,0.337,0.479,0.629
				c-0.028,0.299-0.335,0.421-0.531,0.417C379.18,264.739,378.958,264.526,378.957,264.23z"/>
			<polygon style="fill:#755750;" points="379.574,258 379.434,262.95 372.862,262.913 372.896,258.147 			"/>
			<polygon style="fill:#755750;" points="379.434,265.44 372.827,265.325 372.827,269.968 379.259,270.006 			"/>
		</g>
		<g>
			<path style="fill:#FFC174;" d="M403.544,259.478c-0.245-0.416-5.214-0.51-5.67-0.066c-0.456,0.444-0.343,9.017-0.343,9.017
				l5.879-0.671C403.411,267.758,403.79,259.896,403.544,259.478z"/>
			<path style="fill:#31435A;" d="M402.671,260.658c-0.165-0.279-3.493-0.342-3.798-0.044c-0.305,0.298-0.242,7.104-0.242,7.104
				l3.938-0.45C402.568,267.267,402.835,260.937,402.671,260.658z"/>
			<path style="fill:#4B617D;" d="M398.637,264.293c0.022-1.744,0.083-3.531,0.236-3.68c0.305-0.298,3.633-0.235,3.798,0.044
				c0.087,0.148,0.053,2.005,0.001,3.712L398.637,264.293z"/>
		</g>
		<g>
			<path style="fill:#FFC174;" d="M415.085,259.743c-0.234-0.428-4.97-0.74-5.404-0.316c-0.435,0.424-0.332,9.007-0.332,9.007
				l5.603-0.414C414.952,268.021,415.318,260.171,415.085,259.743z"/>
			<path style="fill:#31435A;" d="M414.251,260.884c-0.156-0.287-3.329-0.496-3.62-0.211c-0.29,0.284-0.234,7.097-0.234,7.097
				l3.753-0.277C414.15,267.493,414.408,261.171,414.251,260.884z"/>
			<path style="fill:#4B617D;" d="M410.405,264.344c0.022-1.744,0.081-3.529,0.227-3.671c0.291-0.284,3.464-0.076,3.62,0.211
				c0.083,0.152,0.049,2.007-0.001,3.714L410.405,264.344z"/>
		</g>
		<g style="opacity:0.5;">
			<path style="fill:#B8C6D8;" d="M386.711,238.334c-0.008,0-0.017-0.003-0.029-0.003l-2.843-0.266
				c-0.166-0.014-0.289-0.163-0.272-0.329c0.014-0.158,0.146-0.275,0.301-0.275c0.008,0,0.017,0.003,0.028,0.003l2.843,0.266
				c0.166,0.014,0.289,0.163,0.272,0.329C386.997,238.217,386.866,238.334,386.711,238.334z"/>
			<path style="fill:#B8C6D8;" d="M404.951,240.053c-0.009,0-0.02-0.003-0.029-0.003l-9.424-0.887
				c-0.166-0.014-0.289-0.163-0.272-0.329c0.015-0.166,0.172-0.261,0.329-0.272l9.424,0.887c0.166,0.014,0.289,0.163,0.272,0.329
				C405.237,239.936,405.105,240.053,404.951,240.053z"/>
			<path style="fill:#B8C6D8;" d="M398.561,242.547c-0.009,0-0.017-0.003-0.026-0.003l-9.058-0.781
				c-0.166-0.015-0.289-0.161-0.275-0.326c0.015-0.169,0.163-0.309,0.326-0.275l9.058,0.781c0.166,0.015,0.289,0.161,0.274,0.326
				C398.847,242.427,398.715,242.547,398.561,242.547z"/>
			<path style="fill:#B8C6D8;" d="M401.284,242.796c-0.009,0-0.017-0.002-0.026-0.002l-1.304-0.115
				c-0.166-0.014-0.289-0.16-0.275-0.326c0.014-0.169,0.175-0.3,0.326-0.275l1.305,0.114c0.166,0.015,0.289,0.16,0.275,0.326
				C401.57,242.676,401.439,242.796,401.284,242.796z"/>
			<path style="fill:#B8C6D8;" d="M394.88,246.162c-0.011,0-0.025-0.002-0.037-0.002l-1.71-0.212
				c-0.166-0.02-0.283-0.172-0.263-0.337c0.02-0.163,0.14-0.295,0.337-0.263l1.71,0.211c0.166,0.02,0.283,0.172,0.263,0.337
				C395.16,246.048,395.031,246.162,394.88,246.162z"/>
			<path style="fill:#B8C6D8;" d="M412.719,247.973c-0.006,0-0.015-0.003-0.021-0.003l-6.604-0.429
				c-0.166-0.009-0.292-0.155-0.281-0.32c0.009-0.166,0.123-0.306,0.32-0.28l6.604,0.429c0.166,0.009,0.292,0.155,0.28,0.32
				C413.011,247.85,412.876,247.973,412.719,247.973z"/>
			<path style="fill:#B8C6D8;" d="M410.808,251.17c-0.006,0-0.012,0-0.017-0.003l-9.851-0.54c-0.166-0.009-0.295-0.152-0.283-0.318
				c0.008-0.166,0.183-0.306,0.317-0.283l9.85,0.541c0.166,0.009,0.295,0.152,0.284,0.317
				C411.1,251.044,410.968,251.17,410.808,251.17z"/>
		</g>
	</g>
	<g>
		<path style="fill:#99B8E0;" d="M362.066,254.227c0,0,4.718,0.566,6.291,4.152c6.645-0.764,12.857,4.716,13.565,10.41
			c0,0,2.752-5.199,12.45-5.848c9.699-0.65,12.451,1.543,12.451,1.543c2.818-4.405,7.733-8.935,19.135-9.878v22.143h-63.826
			L362.066,254.227z"/>
		<path style="fill:#B2D0F5;" d="M365.374,259.48c-2.176,0.41-7.733,3.426-4.449,6.167c2.628,2.192,12.481-0.195,12.324-3.708
			C373.189,260.59,370.736,258.469,365.374,259.48z"/>
		<path style="fill:#B2D0F5;" d="M416.099,257.745c-2.113,0.645-7.277,4.247-3.69,6.612c2.87,1.892,12.377-1.556,11.805-5.029
			C423.995,257.995,421.306,256.156,416.099,257.745z"/>
		<path style="fill:#B2D0F5;" d="M392.168,264.105c-1.951,0.314-6.951,2.53-4.04,4.468c2.329,1.551,11.166-0.253,11.06-2.774
			C399.147,264.831,396.973,263.33,392.168,264.105z"/>
	</g>
	<g>
		<path style="fill:#C1E0FF;" d="M534.097,309.713H41.9v-30.951c0,0,34.725,1.51,77,10.569c42.275,9.059,78.51,9.814,143.432-1.51
			c64.922-11.323,84.171-16.608,130.598-17.362c46.426-0.755,103.422,9.814,103.422,9.814s19.25-4.53,37.745-5.662V309.713z"/>
		<path style="fill:#D6EEFF;" d="M534.097,274.61c-18.495,1.132-37.745,5.662-37.745,5.662s-56.995-10.569-103.422-9.814
			c-46.427,0.755-65.677,6.039-130.598,17.362c-64.922,11.324-101.157,10.569-143.432,1.51
			C76.626,280.272,41.9,278.762,41.9,278.762v11.701c39.632-1.51,84.297,8.178,140.16,9.688
			c55.863,1.51,159.04-18.167,208.354-19.124c51.836-1.006,133.366,10.569,133.366,10.569s-11.009-6.228-21.389-9.247
			c0,0,15.476-2.642,31.706-0.756V274.61z"/>
		<path style="fill:#D6EEFF;" d="M257.048,309.713h205.837c0,0-42.194-18.191-109.209-15.853
			C288.754,296.125,257.048,309.713,257.048,309.713z"/>
		<path style="fill:#D6EEFF;" d="M51.165,296.675c-3.186,0.111-6.272,0.256-9.264,0.429v12.609h99.083
			C140.983,309.713,106.281,294.751,51.165,296.675z"/>
		<path style="fill:#99B8E0;" d="M41.9,309.713v-5.285c0,0,52.466,2.265,93.986,3.397c41.52,1.132,113.613-1.51,146.828-3.02
			c33.216-1.51,132.486,2.642,170.986,1.887c38.501-0.755,69.074-3.775,80.397-4.152v7.172H41.9z"/>
	</g>
	<g>
		<g>
			<path style="fill:#85A3D6;" d="M529.38,291.973c0,0.984-7.351,1.781-16.419,1.781s-16.419-0.798-16.419-1.781
				c0-0.984,7.351-1.782,16.419-1.782S529.38,290.989,529.38,291.973z"/>
			<g>
				<path style="fill:#214C66;" d="M507.354,285.66c0,0-0.167,7.111,1.24,7.04c1.406-0.071,1.422-6.785,1.422-6.785L507.354,285.66z
					"/>
				<path style="fill:#396F91;" d="M509.672,245.73c0,0-10.873,17.89-14.243,40.366c0,0,13.676,4.358,25.554,0.23
					C520.983,286.326,512.094,260.868,509.672,245.73z"/>
				<path style="fill:#214C66;" d="M508.148,288.075c4.029,0.118,8.546-0.258,12.835-1.749c0,0-8.889-25.458-11.311-40.596
					C509.672,245.73,506.35,271.967,508.148,288.075z"/>
				<g style="opacity:0.3;">
					<path style="fill:#295875;" d="M517.848,276.858c-0.339-1.06-0.692-2.184-1.055-3.356c-7.984,3.278-15.062,1.485-18.533-0.389
						c-0.308,1.091-0.599,2.205-0.881,3.337C501.448,278.573,508.242,280.649,517.848,276.858z"/>
					<path style="fill:#295875;" d="M514.359,265.375c-0.258-0.898-0.511-1.806-0.763-2.715c-4.504,1.569-8.373,1.475-11.821-0.134
						c-0.319,0.832-0.633,1.692-0.948,2.571C503.335,266.966,509.375,267.816,514.359,265.375z"/>
				</g>
			</g>
		</g>
		<g>
			<path style="fill:#85A3D6;" d="M509.941,298.012c0,1.198-9.548,2.17-21.326,2.17c-11.778,0-21.326-0.972-21.326-2.17
				c0-1.199,9.548-2.17,21.326-2.17C500.392,295.842,509.941,296.813,509.941,298.012z"/>
			<g>
				<path style="fill:#285C7D;" d="M482.594,291.742c0,0,0.165,7.111,1.566,6.973c1.401-0.137,1.103-6.843,1.103-6.843
					L482.594,291.742z"/>
				<path style="fill:#4281A8;" d="M485.931,224.222c0,0-15.214,30.185-19.896,67.435c0,0,19.187,6.282,35.836-1.297
					C501.87,290.359,489.356,249.001,485.931,224.222z"/>
				<path style="fill:#285C7D;" d="M483.874,294.082c5.651-0.07,11.984-0.986,17.997-3.723c0,0-12.514-41.358-15.94-66.137
					C485.931,224.222,481.321,267.664,483.874,294.082z"/>
				<g style="opacity:0.3;">
					<path style="fill:#31698C;" d="M497.81,276.252c-0.392-1.414-0.802-2.902-1.225-4.456c-11.099,4.681-21.595,2.757-27.221,0.952
						c-0.32,1.435-0.631,2.887-0.928,4.359C473.87,279.022,485.617,281.835,497.81,276.252z"/>
					<path style="fill:#31698C;" d="M493.069,258.37c-0.369-1.467-0.734-2.94-1.099-4.435c-6.638,2.281-12.918,1.921-17.832,0.849
						c-0.452,1.463-0.901,2.95-1.344,4.49C478.078,260.61,485.331,261.238,493.069,258.37z"/>
				</g>
			</g>
		</g>
		<g>
			<path style="fill:#85A3D6;" d="M147.312,299.065c-0.016,0.775-6.199,1.278-13.81,1.125c-7.612-0.153-13.769-0.906-13.754-1.68
				c0.016-0.775,6.199-1.278,13.81-1.125C141.17,297.537,147.328,298.29,147.312,299.065z"/>
			<g>
				<path style="fill:#285C7D;" d="M131.495,294.657c0,0-0.014,4.597-0.921,4.527c-0.907-0.07-0.802-4.409-0.802-4.409
					L131.495,294.657z"/>
				<path style="fill:#4281A8;" d="M128.459,251.064c0,0,10.226,19.309,13.738,43.321c0,0-12.318,4.311-23.177-0.371
					C119.02,294.013,126.568,267.123,128.459,251.064z"/>
				<path style="fill:#285C7D;" d="M128.459,251.064c0,0,3.544,28.002,2.24,45.109c6.459-0.051,11.497-1.788,11.497-1.788
					C138.685,270.373,128.459,251.064,128.459,251.064z"/>
				<g style="opacity:0.3;">
					<path style="fill:#31698C;" d="M121.46,284.844c0.236-0.918,0.481-1.886,0.733-2.896c7.234,2.88,13.992,1.5,17.604,0.261
						c0.225,0.922,0.446,1.857,0.657,2.805C136.967,286.323,129.413,288.293,121.46,284.844z"/>
					<path style="fill:#31698C;" d="M124.29,273.226c0.22-0.952,0.436-1.91,0.653-2.88c4.319,1.388,8.373,1.073,11.535,0.316
						c0.311,0.94,0.621,1.895,0.927,2.884C134.008,274.478,129.329,274.978,124.29,273.226z"/>
				</g>
			</g>
		</g>
	</g>
	<g>
		<path style="fill:#85A3D6;" d="M280.894,289.103c0,0.623-4.655,1.128-10.397,1.128c-5.742,0-10.397-0.505-10.397-1.128
			c0-0.623,4.655-1.128,10.397-1.128C276.239,287.975,280.894,288.48,280.894,289.103z"/>
		<g>
			<path style="fill:#214C66;" d="M266.947,285.106c0,0-0.105,4.503,0.785,4.458c0.89-0.045,0.9-4.297,0.9-4.297L266.947,285.106z"
				/>
			<path style="fill:#396F91;" d="M268.415,259.822c0,0-6.885,11.328-9.019,25.561c0,0,8.66,2.76,16.181,0.145
				C275.577,285.528,269.949,269.407,268.415,259.822z"/>
			<path style="fill:#214C66;" d="M267.45,286.635c2.552,0.074,5.411-0.163,8.127-1.108c0,0-5.629-16.12-7.162-25.706
				C268.415,259.822,266.311,276.435,267.45,286.635z"/>
			<g style="opacity:0.3;">
				<path style="fill:#295875;" d="M273.592,279.532c-0.214-0.671-0.438-1.384-0.668-2.125c-5.056,2.076-9.537,0.94-11.734-0.246
					c-0.195,0.691-0.38,1.396-0.558,2.113C263.207,280.618,267.51,281.933,273.592,279.532z"/>
				<path style="fill:#295875;" d="M271.383,272.261c-0.164-0.569-0.323-1.143-0.483-1.719c-2.852,0.994-5.302,0.934-7.485-0.085
					c-0.202,0.527-0.401,1.071-0.6,1.628C264.403,273.269,268.227,273.807,271.383,272.261z"/>
			</g>
		</g>
	</g>
</g>
</svg>
